<?xml version="1.0" encoding="UTF-8" standalone="no"?>
<!DOCTYPE svg PUBLIC "-//W3C//DTD SVG 1.1//EN"
 "http://www.w3.org/Graphics/SVG/1.1/DTD/svg11.dtd">
<!-- Generated by graphviz version 2.38.0 (20140413.2041)
 -->
<!-- Title: Deprecated symbols Pages: 1 -->
<svg width="258pt" height="66pt"
 viewBox="0.00 0.00 258.00 66.00" xmlns="http://www.w3.org/2000/svg" xmlns:xlink="http://www.w3.org/1999/xlink">
<g id="graph0" class="graph" transform="scale(1 1) rotate(0) translate(4 62)">
<title>Deprecated symbols</title>
<polygon fill="white" stroke="none" points="-4,4 -4,-62 254,-62 254,4 -4,4"/>
<!-- Node1 -->
<g id="node1" class="node"><title>Node1</title>
<g id="a_node1"><a xlink:href="group__grp__pm__deprecated__typedefs.xhtml" target="_top" xlink:title="Deprecated types">
<polygon fill="white" stroke="black" points="149.5,-38.5 149.5,-57.5 242.5,-57.5 242.5,-38.5 149.5,-38.5"/>
<text text-anchor="middle" x="196" y="-45.5" font-family="Helvetica,sans-Serif" font-size="10.00">Deprecated types</text>
</a>
</g>
</g>
<!-- Node0 -->
<g id="node2" class="node"><title>Node0</title>
<polygon fill="#bfbfbf" stroke="black" points="0,-19.5 0,-38.5 106,-38.5 106,-19.5 0,-19.5"/>
<text text-anchor="middle" x="53" y="-26.5" font-family="Helvetica,sans-Serif" font-size="10.00">Deprecated symbols</text>
</g>
<!-- Node0&#45;&gt;Node1 -->
<g id="edge1" class="edge"><title>Node0&#45;&gt;Node1</title>
<path fill="none" stroke="black" d="M116.174,-37.378C127.26,-38.8719 138.625,-40.4034 149.151,-41.8218"/>
<polygon fill="black" stroke="black" points="116.48,-33.8878 106.103,-36.0209 115.546,-40.8251 116.48,-33.8878"/>
</g>
<!-- Node2 -->
<g id="node3" class="node"><title>Node2</title>
<g id="a_node3"><a xlink:href="group__grp__pm__deprecated__functions.xhtml" target="_top" xlink:title="Deprecated functions">
<polygon fill="white" stroke="black" points="142,-0.5 142,-19.5 250,-19.5 250,-0.5 142,-0.5"/>
<text text-anchor="middle" x="196" y="-7.5" font-family="Helvetica,sans-Serif" font-size="10.00">Deprecated functions</text>
</a>
</g>
</g>
<!-- Node0&#45;&gt;Node2 -->
<g id="edge2" class="edge"><title>Node0&#45;&gt;Node2</title>
<path fill="none" stroke="black" d="M116.038,-20.6403C124.594,-19.4874 133.318,-18.3118 141.697,-17.1827"/>
<polygon fill="black" stroke="black" points="115.546,-17.1749 106.103,-21.9791 116.48,-24.1122 115.546,-17.1749"/>
</g>
</g>
</svg>
