<?xml version="1.0" encoding="UTF-8" standalone="no"?>
<!DOCTYPE svg PUBLIC "-//W3C//DTD SVG 1.1//EN"
 "http://www.w3.org/Graphics/SVG/1.1/DTD/svg11.dtd">
<!-- Generated by graphviz version 2.38.0 (20140413.2041)
 -->
<!-- Title: md_frame_roi Pages: 1 -->
<svg width="118pt" height="162pt"
 viewBox="0.00 0.00 118.00 162.00" xmlns="http://www.w3.org/2000/svg" xmlns:xlink="http://www.w3.org/1999/xlink">
<g id="graph0" class="graph" transform="scale(1 1) rotate(0) translate(4 158)">
<title>md_frame_roi</title>
<polygon fill="white" stroke="none" points="-4,4 -4,-158 114,-158 114,4 -4,4"/>
<!-- Node1 -->
<g id="node1" class="node"><title>Node1</title>
<polygon fill="#bfbfbf" stroke="black" points="17.5,-0.5 17.5,-19.5 92.5,-19.5 92.5,-0.5 17.5,-0.5"/>
<text text-anchor="middle" x="55" y="-7.5" font-family="Helvetica,sans-Serif" font-size="10.00">md_frame_roi</text>
</g>
<!-- Node2 -->
<g id="node2" class="node"><title>Node2</title>
<g id="a_node2"><a xlink:href="structmd__frame__roi__header.xhtml" target="_top" xlink:title="md_frame_roi_header">
<polygon fill="white" stroke="black" points="0,-67.5 0,-86.5 110,-86.5 110,-67.5 0,-67.5"/>
<text text-anchor="middle" x="55" y="-74.5" font-family="Helvetica,sans-Serif" font-size="10.00">md_frame_roi_header</text>
</a>
</g>
</g>
<!-- Node2&#45;&gt;Node1 -->
<g id="edge1" class="edge"><title>Node2&#45;&gt;Node1</title>
<path fill="none" stroke="#9a32cd" stroke-dasharray="5,2" d="M55,-57.037C55,-44.6703 55,-29.1198 55,-19.6273"/>
<polygon fill="#9a32cd" stroke="#9a32cd" points="51.5001,-57.2338 55,-67.2338 58.5001,-57.2338 51.5001,-57.2338"/>
<text text-anchor="middle" x="71.5" y="-41" font-family="Helvetica,sans-Serif" font-size="10.00"> header</text>
</g>
<!-- Node3 -->
<g id="node3" class="node"><title>Node3</title>
<g id="a_node3"><a xlink:href="structrgn__type.xhtml" target="_top" xlink:title="rgn_type">
<polygon fill="white" stroke="black" points="28,-134.5 28,-153.5 82,-153.5 82,-134.5 28,-134.5"/>
<text text-anchor="middle" x="55" y="-141.5" font-family="Helvetica,sans-Serif" font-size="10.00">rgn_type</text>
</a>
</g>
</g>
<!-- Node3&#45;&gt;Node2 -->
<g id="edge2" class="edge"><title>Node3&#45;&gt;Node2</title>
<path fill="none" stroke="#9a32cd" stroke-dasharray="5,2" d="M55,-124.037C55,-111.67 55,-96.1198 55,-86.6273"/>
<polygon fill="#9a32cd" stroke="#9a32cd" points="51.5001,-124.234 55,-134.234 58.5001,-124.234 51.5001,-124.234"/>
<text text-anchor="middle" x="62" y="-108" font-family="Helvetica,sans-Serif" font-size="10.00"> roi</text>
</g>
</g>
</svg>
