<?xml version="1.0" encoding="UTF-8" standalone="no"?>
<!DOCTYPE svg PUBLIC "-//W3C//DTD SVG 1.1//EN"
 "http://www.w3.org/Graphics/SVG/1.1/DTD/svg11.dtd">
<!-- Generated by graphviz version 2.38.0 (20140413.2041)
 -->
<!-- Title: md_frame Pages: 1 -->
<svg width="225pt" height="229pt"
 viewBox="0.00 0.00 225.00 229.00" xmlns="http://www.w3.org/2000/svg" xmlns:xlink="http://www.w3.org/1999/xlink">
<g id="graph0" class="graph" transform="scale(1 1) rotate(0) translate(4 225)">
<title>md_frame</title>
<polygon fill="white" stroke="none" points="-4,4 -4,-225 221,-225 221,4 -4,4"/>
<!-- Node1 -->
<g id="node1" class="node"><title>Node1</title>
<polygon fill="#bfbfbf" stroke="black" points="37.5,-0.5 37.5,-19.5 96.5,-19.5 96.5,-0.5 37.5,-0.5"/>
<text text-anchor="middle" x="67" y="-7.5" font-family="Helvetica,sans-Serif" font-size="10.00">md_frame</text>
</g>
<!-- Node2 -->
<g id="node2" class="node"><title>Node2</title>
<g id="a_node2"><a xlink:href="structmd__frame__roi.xhtml" target="_top" xlink:title="md_frame_roi">
<polygon fill="white" stroke="black" points="29.5,-67.5 29.5,-86.5 104.5,-86.5 104.5,-67.5 29.5,-67.5"/>
<text text-anchor="middle" x="67" y="-74.5" font-family="Helvetica,sans-Serif" font-size="10.00">md_frame_roi</text>
</a>
</g>
</g>
<!-- Node2&#45;&gt;Node1 -->
<g id="edge1" class="edge"><title>Node2&#45;&gt;Node1</title>
<path fill="none" stroke="#9a32cd" stroke-dasharray="5,2" d="M67,-57.037C67,-44.6703 67,-29.1198 67,-19.6273"/>
<polygon fill="#9a32cd" stroke="#9a32cd" points="63.5001,-57.2338 67,-67.2338 70.5001,-57.2338 63.5001,-57.2338"/>
<text text-anchor="middle" x="85.5" y="-41" font-family="Helvetica,sans-Serif" font-size="10.00"> roiArray</text>
</g>
<!-- Node3 -->
<g id="node3" class="node"><title>Node3</title>
<g id="a_node3"><a xlink:href="structmd__frame__roi__header.xhtml" target="_top" xlink:title="md_frame_roi_header">
<polygon fill="white" stroke="black" points="26,-134.5 26,-153.5 136,-153.5 136,-134.5 26,-134.5"/>
<text text-anchor="middle" x="81" y="-141.5" font-family="Helvetica,sans-Serif" font-size="10.00">md_frame_roi_header</text>
</a>
</g>
</g>
<!-- Node3&#45;&gt;Node2 -->
<g id="edge2" class="edge"><title>Node3&#45;&gt;Node2</title>
<path fill="none" stroke="#9a32cd" stroke-dasharray="5,2" d="M76.997,-124.415C74.3206,-111.988 70.9236,-96.2166 68.8582,-86.6273"/>
<polygon fill="#9a32cd" stroke="#9a32cd" points="73.5847,-125.195 79.1119,-134.234 80.4278,-123.721 73.5847,-125.195"/>
<text text-anchor="middle" x="91.5" y="-108" font-family="Helvetica,sans-Serif" font-size="10.00"> header</text>
</g>
<!-- Node4 -->
<g id="node4" class="node"><title>Node4</title>
<g id="a_node4"><a xlink:href="structrgn__type.xhtml" target="_top" xlink:title="rgn_type">
<polygon fill="white" stroke="black" points="0,-201.5 0,-220.5 54,-220.5 54,-201.5 0,-201.5"/>
<text text-anchor="middle" x="27" y="-208.5" font-family="Helvetica,sans-Serif" font-size="10.00">rgn_type</text>
</a>
</g>
</g>
<!-- Node4&#45;&gt;Node1 -->
<g id="edge4" class="edge"><title>Node4&#45;&gt;Node1</title>
<path fill="none" stroke="#9a32cd" stroke-dasharray="5,2" d="M21.4498,-191.563C14.028,-163.562 3.59091,-109.12 20,-67 27.6485,-47.3675 45.14,-29.6495 56.4934,-19.6181"/>
<polygon fill="#9a32cd" stroke="#9a32cd" points="18.092,-192.552 24.1761,-201.226 24.829,-190.651 18.092,-192.552"/>
<text text-anchor="middle" x="36.5" y="-108" font-family="Helvetica,sans-Serif" font-size="10.00"> impliedRoi</text>
</g>
<!-- Node4&#45;&gt;Node3 -->
<g id="edge3" class="edge"><title>Node4&#45;&gt;Node3</title>
<path fill="none" stroke="#9a32cd" stroke-dasharray="5,2" d="M40.8984,-193.27C51.4269,-180.597 65.4638,-163.701 73.8327,-153.627"/>
<polygon fill="#9a32cd" stroke="#9a32cd" points="37.9807,-191.305 34.2827,-201.234 43.3651,-195.778 37.9807,-191.305"/>
<text text-anchor="middle" x="65" y="-175" font-family="Helvetica,sans-Serif" font-size="10.00"> roi</text>
</g>
<!-- Node5 -->
<g id="node5" class="node"><title>Node5</title>
<g id="a_node5"><a xlink:href="structmd__frame__header.xhtml" target="_top" xlink:title="md_frame_header">
<polygon fill="white" stroke="black" points="123,-67.5 123,-86.5 217,-86.5 217,-67.5 123,-67.5"/>
<text text-anchor="middle" x="170" y="-74.5" font-family="Helvetica,sans-Serif" font-size="10.00">md_frame_header</text>
</a>
</g>
</g>
<!-- Node5&#45;&gt;Node1 -->
<g id="edge5" class="edge"><title>Node5&#45;&gt;Node1</title>
<path fill="none" stroke="#9a32cd" stroke-dasharray="5,2" d="M147.449,-61.7687C127.061,-48.9026 97.7082,-30.379 80.671,-19.6273"/>
<polygon fill="#9a32cd" stroke="#9a32cd" points="145.784,-64.8568 156.109,-67.2338 149.52,-58.937 145.784,-64.8568"/>
<text text-anchor="middle" x="141.5" y="-41" font-family="Helvetica,sans-Serif" font-size="10.00"> header</text>
</g>
</g>
</svg>
