<?xml version="1.0" encoding="UTF-8" standalone="no"?>
<!DOCTYPE svg PUBLIC "-//W3C//DTD SVG 1.1//EN"
 "http://www.w3.org/Graphics/SVG/1.1/DTD/svg11.dtd">
<!-- Generated by graphviz version 2.38.0 (20140413.2041)
 -->
<!-- Title: io_list Pages: 1 -->
<svg width="102pt" height="212pt"
 viewBox="0.00 0.00 102.00 211.50" xmlns="http://www.w3.org/2000/svg" xmlns:xlink="http://www.w3.org/1999/xlink">
<g id="graph0" class="graph" transform="scale(1 1) rotate(0) translate(4 207.501)">
<title>io_list</title>
<polygon fill="white" stroke="none" points="-4,4 -4,-207.501 98,-207.501 98,4 -4,4"/>
<!-- Node1 -->
<g id="node1" class="node"><title>Node1</title>
<polygon fill="#bfbfbf" stroke="black" points="6,-0.5 6,-19.5 48,-19.5 48,-0.5 6,-0.5"/>
<text text-anchor="middle" x="27" y="-7.5" font-family="Helvetica,sans-Serif" font-size="10.00">io_list</text>
</g>
<!-- Node2 -->
<g id="node2" class="node"><title>Node2</title>
<g id="a_node2"><a xlink:href="structio__struct.xhtml" target="_top" xlink:title="io_struct">
<polygon fill="white" stroke="black" points="0,-177.5 0,-196.5 54,-196.5 54,-177.5 0,-177.5"/>
<text text-anchor="middle" x="27" y="-184.5" font-family="Helvetica,sans-Serif" font-size="10.00">io_struct</text>
</a>
</g>
</g>
<!-- Node2&#45;&gt;Node1 -->
<g id="edge1" class="edge"><title>Node2&#45;&gt;Node1</title>
<path fill="none" stroke="#9a32cd" stroke-dasharray="5,2" d="M27,-166.951C27,-129.297 27,-46.6537 27,-19.6932"/>
<polygon fill="#9a32cd" stroke="#9a32cd" points="23.5001,-167.081 27,-177.081 30.5001,-167.081 23.5001,-167.081"/>
<text text-anchor="middle" x="58" y="-151" font-family="Helvetica,sans-Serif" font-size="10.00"> pre_readout</text>
<text text-anchor="middle" x="58" y="-140" font-family="Helvetica,sans-Serif" font-size="10.00">post_integrate</text>
<text text-anchor="middle" x="58" y="-129" font-family="Helvetica,sans-Serif" font-size="10.00">pre_open</text>
<text text-anchor="middle" x="58" y="-118" font-family="Helvetica,sans-Serif" font-size="10.00">pre_flash</text>
<text text-anchor="middle" x="58" y="-107" font-family="Helvetica,sans-Serif" font-size="10.00">pre_integrate</text>
<text text-anchor="middle" x="58" y="-96" font-family="Helvetica,sans-Serif" font-size="10.00">post_open</text>
<text text-anchor="middle" x="58" y="-85" font-family="Helvetica,sans-Serif" font-size="10.00">post_readout</text>
<text text-anchor="middle" x="58" y="-74" font-family="Helvetica,sans-Serif" font-size="10.00">post_flash</text>
<text text-anchor="middle" x="58" y="-63" font-family="Helvetica,sans-Serif" font-size="10.00">pre_close</text>
<text text-anchor="middle" x="58" y="-52" font-family="Helvetica,sans-Serif" font-size="10.00">post_close</text>
<text text-anchor="middle" x="58" y="-41" font-family="Helvetica,sans-Serif" font-size="10.00">...</text>
</g>
<!-- Node2&#45;&gt;Node2 -->
<g id="edge2" class="edge"><title>Node2&#45;&gt;Node2</title>
<path fill="none" stroke="#9a32cd" stroke-dasharray="5,2" d="M45.3431,-201.67C58.6732,-206.553 72,-201.663 72,-187 72,-168.953 51.8126,-165.71 36.2778,-177.272"/>
<polygon fill="#9a32cd" stroke="#9a32cd" points="46.7332,-198.442 36.2778,-196.728 43.3827,-204.588 46.7332,-198.442"/>
<text text-anchor="middle" x="83" y="-184.5" font-family="Helvetica,sans-Serif" font-size="10.00"> next</text>
</g>
</g>
</svg>
