<?xml version="1.0" encoding="UTF-8" standalone="no"?>
<!DOCTYPE svg PUBLIC "-//W3C//DTD SVG 1.1//EN"
 "http://www.w3.org/Graphics/SVG/1.1/DTD/svg11.dtd">
<!-- Generated by graphviz version 2.38.0 (20140413.2041)
 -->
<!-- Title: md_ext_item_collection Pages: 1 -->
<svg width="127pt" height="173pt"
 viewBox="0.00 0.00 127.00 173.00" xmlns="http://www.w3.org/2000/svg" xmlns:xlink="http://www.w3.org/1999/xlink">
<g id="graph0" class="graph" transform="scale(1 1) rotate(0) translate(4 169)">
<title>md_ext_item_collection</title>
<polygon fill="white" stroke="none" points="-4,4 -4,-169 123,-169 123,4 -4,4"/>
<!-- Node1 -->
<g id="node1" class="node"><title>Node1</title>
<polygon fill="#bfbfbf" stroke="black" points="0,-0.5 0,-19.5 119,-19.5 119,-0.5 0,-0.5"/>
<text text-anchor="middle" x="59.5" y="-7.5" font-family="Helvetica,sans-Serif" font-size="10.00">md_ext_item_collection</text>
</g>
<!-- Node2 -->
<g id="node2" class="node"><title>Node2</title>
<g id="a_node2"><a xlink:href="structmd__ext__item.xhtml" target="_top" xlink:title="md_ext_item">
<polygon fill="white" stroke="black" points="23,-78.5 23,-97.5 96,-97.5 96,-78.5 23,-78.5"/>
<text text-anchor="middle" x="59.5" y="-85.5" font-family="Helvetica,sans-Serif" font-size="10.00">md_ext_item</text>
</a>
</g>
</g>
<!-- Node2&#45;&gt;Node1 -->
<g id="edge1" class="edge"><title>Node2&#45;&gt;Node1</title>
<path fill="none" stroke="#9a32cd" stroke-dasharray="5,2" d="M59.5,-68.2239C59.5,-52.6974 59.5,-31.3582 59.5,-19.6165"/>
<polygon fill="#9a32cd" stroke="#9a32cd" points="56.0001,-68.2818 59.5,-78.2818 63.0001,-68.2819 56.0001,-68.2818"/>
<text text-anchor="middle" x="70.5" y="-52" font-family="Helvetica,sans-Serif" font-size="10.00"> map</text>
<text text-anchor="middle" x="70.5" y="-41" font-family="Helvetica,sans-Serif" font-size="10.00">list</text>
</g>
<!-- Node3 -->
<g id="node3" class="node"><title>Node3</title>
<g id="a_node3"><a xlink:href="structmd__ext__item__info.xhtml" target="_top" xlink:title="md_ext_item_info">
<polygon fill="white" stroke="black" points="13,-145.5 13,-164.5 106,-164.5 106,-145.5 13,-145.5"/>
<text text-anchor="middle" x="59.5" y="-152.5" font-family="Helvetica,sans-Serif" font-size="10.00">md_ext_item_info</text>
</a>
</g>
</g>
<!-- Node3&#45;&gt;Node2 -->
<g id="edge2" class="edge"><title>Node3&#45;&gt;Node2</title>
<path fill="none" stroke="#9a32cd" stroke-dasharray="5,2" d="M59.5,-135.037C59.5,-122.67 59.5,-107.12 59.5,-97.6273"/>
<polygon fill="#9a32cd" stroke="#9a32cd" points="56.0001,-135.234 59.5,-145.234 63.0001,-135.234 56.0001,-135.234"/>
<text text-anchor="middle" x="75.5" y="-119" font-family="Helvetica,sans-Serif" font-size="10.00"> tagInfo</text>
</g>
</g>
</svg>
