<?xml version="1.0" encoding="UTF-8" standalone="no"?>
<!DOCTYPE svg PUBLIC "-//W3C//DTD SVG 1.1//EN"
 "http://www.w3.org/Graphics/SVG/1.1/DTD/svg11.dtd">
<!-- Generated by graphviz version 2.38.0 (20140413.2041)
 -->
<!-- Title: active_camera_type Pages: 1 -->
<svg width="127pt" height="279pt"
 viewBox="0.00 0.00 126.50 278.50" xmlns="http://www.w3.org/2000/svg" xmlns:xlink="http://www.w3.org/1999/xlink">
<g id="graph0" class="graph" transform="scale(1 1) rotate(0) translate(4 274.501)">
<title>active_camera_type</title>
<polygon fill="white" stroke="none" points="-4,4 -4,-274.501 122.5,-274.501 122.5,4 -4,4"/>
<!-- Node1 -->
<g id="node1" class="node"><title>Node1</title>
<polygon fill="#bfbfbf" stroke="black" points="0,-0.5 0,-19.5 103,-19.5 103,-0.5 0,-0.5"/>
<text text-anchor="middle" x="51.5" y="-7.5" font-family="Helvetica,sans-Serif" font-size="10.00">active_camera_type</text>
</g>
<!-- Node2 -->
<g id="node2" class="node"><title>Node2</title>
<g id="a_node2"><a xlink:href="structio__list.xhtml" target="_top" xlink:title="io_list">
<polygon fill="white" stroke="black" points="30.5,-67.5 30.5,-86.5 72.5,-86.5 72.5,-67.5 30.5,-67.5"/>
<text text-anchor="middle" x="51.5" y="-74.5" font-family="Helvetica,sans-Serif" font-size="10.00">io_list</text>
</a>
</g>
</g>
<!-- Node2&#45;&gt;Node1 -->
<g id="edge1" class="edge"><title>Node2&#45;&gt;Node1</title>
<path fill="none" stroke="#9a32cd" stroke-dasharray="5,2" d="M51.5,-57.037C51.5,-44.6703 51.5,-29.1198 51.5,-19.6273"/>
<polygon fill="#9a32cd" stroke="#9a32cd" points="48.0001,-57.2338 51.5,-67.2338 55.0001,-57.2338 48.0001,-57.2338"/>
<text text-anchor="middle" x="66.5" y="-41" font-family="Helvetica,sans-Serif" font-size="10.00"> io_hdr</text>
</g>
<!-- Node3 -->
<g id="node3" class="node"><title>Node3</title>
<g id="a_node3"><a xlink:href="structio__struct.xhtml" target="_top" xlink:title="io_struct">
<polygon fill="white" stroke="black" points="24.5,-244.5 24.5,-263.5 78.5,-263.5 78.5,-244.5 24.5,-244.5"/>
<text text-anchor="middle" x="51.5" y="-251.5" font-family="Helvetica,sans-Serif" font-size="10.00">io_struct</text>
</a>
</g>
</g>
<!-- Node3&#45;&gt;Node2 -->
<g id="edge2" class="edge"><title>Node3&#45;&gt;Node2</title>
<path fill="none" stroke="#9a32cd" stroke-dasharray="5,2" d="M51.5,-233.951C51.5,-196.297 51.5,-113.654 51.5,-86.6932"/>
<polygon fill="#9a32cd" stroke="#9a32cd" points="48.0001,-234.081 51.5,-244.081 55.0001,-234.081 48.0001,-234.081"/>
<text text-anchor="middle" x="82.5" y="-218" font-family="Helvetica,sans-Serif" font-size="10.00"> pre_readout</text>
<text text-anchor="middle" x="82.5" y="-207" font-family="Helvetica,sans-Serif" font-size="10.00">post_integrate</text>
<text text-anchor="middle" x="82.5" y="-196" font-family="Helvetica,sans-Serif" font-size="10.00">pre_open</text>
<text text-anchor="middle" x="82.5" y="-185" font-family="Helvetica,sans-Serif" font-size="10.00">pre_flash</text>
<text text-anchor="middle" x="82.5" y="-174" font-family="Helvetica,sans-Serif" font-size="10.00">pre_integrate</text>
<text text-anchor="middle" x="82.5" y="-163" font-family="Helvetica,sans-Serif" font-size="10.00">post_open</text>
<text text-anchor="middle" x="82.5" y="-152" font-family="Helvetica,sans-Serif" font-size="10.00">post_readout</text>
<text text-anchor="middle" x="82.5" y="-141" font-family="Helvetica,sans-Serif" font-size="10.00">post_flash</text>
<text text-anchor="middle" x="82.5" y="-130" font-family="Helvetica,sans-Serif" font-size="10.00">pre_close</text>
<text text-anchor="middle" x="82.5" y="-119" font-family="Helvetica,sans-Serif" font-size="10.00">post_close</text>
<text text-anchor="middle" x="82.5" y="-108" font-family="Helvetica,sans-Serif" font-size="10.00">...</text>
</g>
<!-- Node3&#45;&gt;Node3 -->
<g id="edge3" class="edge"><title>Node3&#45;&gt;Node3</title>
<path fill="none" stroke="#9a32cd" stroke-dasharray="5,2" d="M69.8431,-268.67C83.1732,-273.553 96.5,-268.663 96.5,-254 96.5,-235.953 76.3126,-232.71 60.7778,-244.272"/>
<polygon fill="#9a32cd" stroke="#9a32cd" points="71.2332,-265.442 60.7778,-263.728 67.8827,-271.588 71.2332,-265.442"/>
<text text-anchor="middle" x="107.5" y="-251.5" font-family="Helvetica,sans-Serif" font-size="10.00"> next</text>
</g>
</g>
</svg>
